<mxfile host="Electron" modified="2024-05-09T04:11:39.668Z" agent="Mozilla/5.0 (X11; Linux x86_64) AppleWebKit/537.36 (KHTML, like Gecko) draw.io/24.2.5 Chrome/120.0.6099.109 Electron/28.1.0 Safari/537.36" etag="28bDIQGFfF28PgKGMJxY" version="24.2.5" type="device">
  <diagram name="第 1 页" id="kQ_iLcOtnLhzTw7cKh8k">
    <mxGraphModel dx="954" dy="1832" grid="1" gridSize="10" guides="1" tooltips="1" connect="1" arrows="1" fold="1" page="1" pageScale="1" pageWidth="827" pageHeight="1169" math="0" shadow="0">
      <root>
        <mxCell id="0" />
        <mxCell id="1" parent="0" />
        <mxCell id="sUXl09W4jl-q58QYEXRD-49" value="" style="verticalLabelPosition=bottom;shadow=0;dashed=0;align=center;html=1;verticalAlign=top;shape=mxgraph.electrical.transistors.nmos;pointerEvents=1;" vertex="1" parent="1">
          <mxGeometry x="507.5" y="140" width="60" height="100" as="geometry" />
        </mxCell>
        <mxCell id="sUXl09W4jl-q58QYEXRD-48" value="" style="verticalLabelPosition=bottom;shadow=0;dashed=0;align=center;html=1;verticalAlign=top;shape=mxgraph.electrical.transistors.nmos;pointerEvents=1;" vertex="1" parent="1">
          <mxGeometry x="222.5" y="140" width="60" height="100" as="geometry" />
        </mxCell>
        <mxCell id="sUXl09W4jl-q58QYEXRD-30" value="" style="pointerEvents=1;verticalLabelPosition=bottom;shadow=0;dashed=0;align=center;html=1;verticalAlign=top;shape=mxgraph.electrical.resistors.resistor_2;rotation=90;" vertex="1" parent="1">
          <mxGeometry x="517.5" y="90" width="100" height="20" as="geometry" />
        </mxCell>
        <mxCell id="sUXl09W4jl-q58QYEXRD-2" value="" style="pointerEvents=1;verticalLabelPosition=bottom;shadow=0;dashed=0;align=center;html=1;verticalAlign=top;shape=mxgraph.electrical.signal_sources.signal_ground;" vertex="1" parent="1">
          <mxGeometry x="260" y="330" width="45" height="30" as="geometry" />
        </mxCell>
        <mxCell id="sUXl09W4jl-q58QYEXRD-3" value="V&lt;sub&gt;dd&lt;/sub&gt;" style="verticalLabelPosition=top;verticalAlign=bottom;shape=mxgraph.electrical.signal_sources.vdd;shadow=0;dashed=0;align=center;strokeWidth=1;fontSize=24;html=1;flipV=1;" vertex="1" parent="1">
          <mxGeometry x="252.5" y="20" width="60" height="40" as="geometry" />
        </mxCell>
        <mxCell id="sUXl09W4jl-q58QYEXRD-5" value="" style="verticalLabelPosition=bottom;shadow=0;dashed=0;align=center;html=1;verticalAlign=top;strokeWidth=1;shape=ellipse;" vertex="1" parent="1">
          <mxGeometry x="325" y="135" width="10" height="10" as="geometry" />
        </mxCell>
        <mxCell id="sUXl09W4jl-q58QYEXRD-7" value="" style="shape=waypoint;sketch=0;fillStyle=solid;size=6;pointerEvents=1;points=[];fillColor=none;resizable=0;rotatable=0;perimeter=centerPerimeter;snapToPoint=1;" vertex="1" parent="1">
          <mxGeometry x="272.5" y="130" width="20" height="20" as="geometry" />
        </mxCell>
        <mxCell id="sUXl09W4jl-q58QYEXRD-8" value="" style="endArrow=none;html=1;strokeWidth=1;rounded=0;" edge="1" parent="1">
          <mxGeometry width="100" relative="1" as="geometry">
            <mxPoint x="285" y="140" as="sourcePoint" />
            <mxPoint x="325" y="140" as="targetPoint" />
          </mxGeometry>
        </mxCell>
        <mxCell id="sUXl09W4jl-q58QYEXRD-9" value="&lt;font style=&quot;font-size: 20px;&quot;&gt;V&lt;/font&gt;&lt;font style=&quot;font-size: 16.6667px;&quot;&gt;out&lt;/font&gt;" style="text;html=1;align=center;verticalAlign=middle;whiteSpace=wrap;rounded=0;" vertex="1" parent="1">
          <mxGeometry x="300" y="140" width="60" height="30" as="geometry" />
        </mxCell>
        <mxCell id="sUXl09W4jl-q58QYEXRD-10" value="&lt;span style=&quot;font-size: 20px;&quot;&gt;R&lt;sub&gt;D&lt;/sub&gt;&lt;/span&gt;" style="text;html=1;align=center;verticalAlign=middle;whiteSpace=wrap;rounded=0;" vertex="1" parent="1">
          <mxGeometry x="215" y="85" width="60" height="30" as="geometry" />
        </mxCell>
        <mxCell id="sUXl09W4jl-q58QYEXRD-11" value="" style="verticalLabelPosition=bottom;shadow=0;dashed=0;align=center;html=1;verticalAlign=top;strokeWidth=1;shape=ellipse;" vertex="1" parent="1">
          <mxGeometry x="217.5" y="185" width="10" height="10" as="geometry" />
        </mxCell>
        <mxCell id="sUXl09W4jl-q58QYEXRD-13" value="" style="endArrow=none;html=1;strokeWidth=1;rounded=0;entryX=1;entryY=1;entryDx=0;entryDy=0;entryPerimeter=0;exitX=0;exitY=0.5;exitDx=0;exitDy=0;exitPerimeter=0;" edge="1" parent="1">
          <mxGeometry width="100" relative="1" as="geometry">
            <mxPoint x="282.5" y="250" as="sourcePoint" />
            <mxPoint x="282.5" y="237.14285714285717" as="targetPoint" />
          </mxGeometry>
        </mxCell>
        <mxCell id="sUXl09W4jl-q58QYEXRD-14" value="" style="endArrow=none;html=1;strokeWidth=1;rounded=0;entryX=1;entryY=0.5;entryDx=0;entryDy=0;entryPerimeter=0;exitX=0.5;exitY=0;exitDx=0;exitDy=0;exitPerimeter=0;" edge="1" parent="1" source="sUXl09W4jl-q58QYEXRD-2">
          <mxGeometry width="100" relative="1" as="geometry">
            <mxPoint x="305" y="330" as="sourcePoint" />
            <mxPoint x="282.5" y="310" as="targetPoint" />
          </mxGeometry>
        </mxCell>
        <mxCell id="sUXl09W4jl-q58QYEXRD-16" value="" style="pointerEvents=1;verticalLabelPosition=bottom;shadow=0;dashed=0;align=center;html=1;verticalAlign=top;shape=mxgraph.electrical.resistors.resistor_2;rotation=90;" vertex="1" parent="1">
          <mxGeometry x="232.5" y="90" width="100" height="20" as="geometry" />
        </mxCell>
        <mxCell id="sUXl09W4jl-q58QYEXRD-17" value="" style="pointerEvents=1;verticalLabelPosition=bottom;shadow=0;dashed=0;align=center;html=1;verticalAlign=top;shape=mxgraph.electrical.signal_sources.source;aspect=fixed;points=[[0.5,0,0],[1,0.5,0],[0.5,1,0],[0,0.5,0]];elSignalType=dc3;" vertex="1" parent="1">
          <mxGeometry x="252.5" y="250" width="60" height="60" as="geometry" />
        </mxCell>
        <mxCell id="sUXl09W4jl-q58QYEXRD-18" value="&lt;span style=&quot;font-size: 20px;&quot;&gt;V&lt;sub&gt;in&lt;/sub&gt;&lt;/span&gt;" style="text;html=1;align=center;verticalAlign=middle;whiteSpace=wrap;rounded=0;" vertex="1" parent="1">
          <mxGeometry x="200" y="265" width="60" height="30" as="geometry" />
        </mxCell>
        <mxCell id="sUXl09W4jl-q58QYEXRD-21" value="V&lt;sub&gt;dd&lt;/sub&gt;" style="verticalLabelPosition=top;verticalAlign=bottom;shape=mxgraph.electrical.signal_sources.vdd;shadow=0;dashed=0;align=center;strokeWidth=1;fontSize=24;html=1;flipV=1;" vertex="1" parent="1">
          <mxGeometry x="537.5" y="20" width="60" height="40" as="geometry" />
        </mxCell>
        <mxCell id="sUXl09W4jl-q58QYEXRD-22" value="" style="verticalLabelPosition=bottom;shadow=0;dashed=0;align=center;html=1;verticalAlign=top;strokeWidth=1;shape=ellipse;" vertex="1" parent="1">
          <mxGeometry x="615" y="135" width="10" height="10" as="geometry" />
        </mxCell>
        <mxCell id="sUXl09W4jl-q58QYEXRD-23" value="" style="shape=waypoint;sketch=0;fillStyle=solid;size=6;pointerEvents=1;points=[];fillColor=none;resizable=0;rotatable=0;perimeter=centerPerimeter;snapToPoint=1;" vertex="1" parent="1">
          <mxGeometry x="557.5" y="130" width="20" height="20" as="geometry" />
        </mxCell>
        <mxCell id="sUXl09W4jl-q58QYEXRD-24" value="" style="endArrow=none;html=1;strokeWidth=1;rounded=0;" edge="1" parent="1" source="sUXl09W4jl-q58QYEXRD-23">
          <mxGeometry width="100" relative="1" as="geometry">
            <mxPoint x="575" y="140" as="sourcePoint" />
            <mxPoint x="615" y="140" as="targetPoint" />
          </mxGeometry>
        </mxCell>
        <mxCell id="sUXl09W4jl-q58QYEXRD-25" value="&lt;font style=&quot;font-size: 20px;&quot;&gt;V&lt;/font&gt;&lt;font style=&quot;font-size: 16.6667px;&quot;&gt;out&lt;/font&gt;" style="text;html=1;align=center;verticalAlign=middle;whiteSpace=wrap;rounded=0;" vertex="1" parent="1">
          <mxGeometry x="590" y="140" width="60" height="30" as="geometry" />
        </mxCell>
        <mxCell id="sUXl09W4jl-q58QYEXRD-26" value="&lt;span style=&quot;font-size: 20px;&quot;&gt;R&lt;sub&gt;D&lt;/sub&gt;&lt;/span&gt;" style="text;html=1;align=center;verticalAlign=middle;whiteSpace=wrap;rounded=0;" vertex="1" parent="1">
          <mxGeometry x="505" y="85" width="60" height="30" as="geometry" />
        </mxCell>
        <mxCell id="sUXl09W4jl-q58QYEXRD-27" value="" style="verticalLabelPosition=bottom;shadow=0;dashed=0;align=center;html=1;verticalAlign=top;strokeWidth=1;shape=ellipse;" vertex="1" parent="1">
          <mxGeometry x="507.5" y="185" width="10" height="10" as="geometry" />
        </mxCell>
        <mxCell id="sUXl09W4jl-q58QYEXRD-28" value="" style="endArrow=none;html=1;strokeWidth=1;rounded=0;exitDx=0;exitDy=0;exitPerimeter=0;" edge="1" parent="1" source="sUXl09W4jl-q58QYEXRD-39">
          <mxGeometry width="100" relative="1" as="geometry">
            <mxPoint x="572.5" y="250" as="sourcePoint" />
            <mxPoint x="567" y="230" as="targetPoint" />
          </mxGeometry>
        </mxCell>
        <mxCell id="sUXl09W4jl-q58QYEXRD-31" value="" style="pointerEvents=1;verticalLabelPosition=bottom;shadow=0;dashed=0;align=center;html=1;verticalAlign=top;shape=mxgraph.electrical.signal_sources.source;aspect=fixed;points=[[0.5,0,0],[1,0.5,0],[0.5,1,0],[0,0.5,0]];elSignalType=dc3;" vertex="1" parent="1">
          <mxGeometry x="430" y="250" width="60" height="60" as="geometry" />
        </mxCell>
        <mxCell id="sUXl09W4jl-q58QYEXRD-32" value="&lt;span style=&quot;font-size: 20px;&quot;&gt;V&lt;sub&gt;in&lt;/sub&gt;&lt;/span&gt;" style="text;html=1;align=center;verticalAlign=middle;whiteSpace=wrap;rounded=0;" vertex="1" parent="1">
          <mxGeometry x="477.5" y="265" width="60" height="30" as="geometry" />
        </mxCell>
        <mxCell id="sUXl09W4jl-q58QYEXRD-33" value="" style="pointerEvents=1;verticalLabelPosition=bottom;shadow=0;dashed=0;align=center;html=1;verticalAlign=top;shape=mxgraph.electrical.signal_sources.signal_ground;" vertex="1" parent="1">
          <mxGeometry x="545" y="330" width="45" height="30" as="geometry" />
        </mxCell>
        <mxCell id="sUXl09W4jl-q58QYEXRD-35" value="" style="pointerEvents=1;verticalLabelPosition=bottom;shadow=0;dashed=0;align=center;html=1;verticalAlign=top;shape=mxgraph.electrical.capacitors.capacitor_1;" vertex="1" parent="1">
          <mxGeometry x="489" y="212.5" width="60" height="35" as="geometry" />
        </mxCell>
        <mxCell id="sUXl09W4jl-q58QYEXRD-38" value="" style="endArrow=none;html=1;strokeWidth=1;rounded=0;entryX=0;entryY=0.5;entryDx=0;entryDy=0;entryPerimeter=0;exitX=0.5;exitY=0;exitDx=0;exitDy=0;exitPerimeter=0;" edge="1" parent="1" source="sUXl09W4jl-q58QYEXRD-31" target="sUXl09W4jl-q58QYEXRD-35">
          <mxGeometry width="100" relative="1" as="geometry">
            <mxPoint x="430" y="240" as="sourcePoint" />
            <mxPoint x="530" y="240" as="targetPoint" />
            <Array as="points">
              <mxPoint x="460" y="230" />
            </Array>
          </mxGeometry>
        </mxCell>
        <mxCell id="sUXl09W4jl-q58QYEXRD-40" value="" style="endArrow=none;html=1;strokeWidth=1;rounded=0;exitX=1;exitY=0.5;exitDx=0;exitDy=0;exitPerimeter=0;" edge="1" parent="1" source="sUXl09W4jl-q58QYEXRD-35" target="sUXl09W4jl-q58QYEXRD-39">
          <mxGeometry width="100" relative="1" as="geometry">
            <mxPoint x="549" y="230" as="sourcePoint" />
            <mxPoint x="567" y="230" as="targetPoint" />
          </mxGeometry>
        </mxCell>
        <mxCell id="sUXl09W4jl-q58QYEXRD-39" value="" style="shape=waypoint;sketch=0;fillStyle=solid;size=6;pointerEvents=1;points=[];fillColor=none;resizable=0;rotatable=0;perimeter=centerPerimeter;snapToPoint=1;" vertex="1" parent="1">
          <mxGeometry x="557.5" y="220" width="20" height="20" as="geometry" />
        </mxCell>
        <mxCell id="sUXl09W4jl-q58QYEXRD-41" value="" style="pointerEvents=1;verticalLabelPosition=bottom;shadow=0;dashed=0;align=center;html=1;verticalAlign=top;shape=mxgraph.electrical.signal_sources.source;aspect=fixed;points=[[0.5,0,0],[1,0.5,0],[0.5,1,0],[0,0.5,0]];elSignalType=dc1;rotation=90;" vertex="1" parent="1">
          <mxGeometry x="537.5" y="250" width="60" height="60" as="geometry" />
        </mxCell>
        <mxCell id="sUXl09W4jl-q58QYEXRD-42" value="" style="endArrow=none;html=1;strokeWidth=1;rounded=0;exitX=0;exitY=0.5;exitDx=0;exitDy=0;exitPerimeter=0;" edge="1" parent="1" source="sUXl09W4jl-q58QYEXRD-41" target="sUXl09W4jl-q58QYEXRD-39">
          <mxGeometry width="100" relative="1" as="geometry">
            <mxPoint x="620" y="230" as="sourcePoint" />
            <mxPoint x="550" y="270" as="targetPoint" />
          </mxGeometry>
        </mxCell>
        <mxCell id="sUXl09W4jl-q58QYEXRD-44" value="" style="endArrow=none;html=1;strokeWidth=1;rounded=0;entryX=0.5;entryY=0;entryDx=0;entryDy=0;entryPerimeter=0;exitX=1;exitY=0.5;exitDx=0;exitDy=0;exitPerimeter=0;" edge="1" parent="1" source="sUXl09W4jl-q58QYEXRD-41" target="sUXl09W4jl-q58QYEXRD-33">
          <mxGeometry width="100" relative="1" as="geometry">
            <mxPoint x="510" y="290" as="sourcePoint" />
            <mxPoint x="610" y="290" as="targetPoint" />
          </mxGeometry>
        </mxCell>
        <mxCell id="sUXl09W4jl-q58QYEXRD-45" value="" style="endArrow=none;html=1;strokeWidth=1;rounded=0;exitX=0.5;exitY=1;exitDx=0;exitDy=0;exitPerimeter=0;" edge="1" parent="1" source="sUXl09W4jl-q58QYEXRD-31">
          <mxGeometry width="100" relative="1" as="geometry">
            <mxPoint x="480" y="290" as="sourcePoint" />
            <mxPoint x="570" y="330" as="targetPoint" />
            <Array as="points">
              <mxPoint x="460" y="330" />
            </Array>
          </mxGeometry>
        </mxCell>
        <mxCell id="sUXl09W4jl-q58QYEXRD-46" value="" style="shape=waypoint;sketch=0;fillStyle=solid;size=6;pointerEvents=1;points=[];fillColor=none;resizable=0;rotatable=0;perimeter=centerPerimeter;snapToPoint=1;" vertex="1" parent="1">
          <mxGeometry x="557.5" y="320" width="20" height="20" as="geometry" />
        </mxCell>
        <mxCell id="sUXl09W4jl-q58QYEXRD-47" value="&lt;span style=&quot;font-size: 20px;&quot;&gt;I&lt;sub&gt;1&lt;/sub&gt;&lt;/span&gt;" style="text;html=1;align=center;verticalAlign=middle;whiteSpace=wrap;rounded=0;" vertex="1" parent="1">
          <mxGeometry x="590" y="265" width="60" height="30" as="geometry" />
        </mxCell>
        <mxCell id="sUXl09W4jl-q58QYEXRD-51" value="&lt;span style=&quot;font-size: 20px;&quot;&gt;V&lt;/span&gt;&lt;span style=&quot;font-size: 16.6667px;&quot;&gt;b&lt;/span&gt;" style="text;html=1;align=center;verticalAlign=middle;whiteSpace=wrap;rounded=0;" vertex="1" parent="1">
          <mxGeometry x="162.5" y="165" width="60" height="30" as="geometry" />
        </mxCell>
        <mxCell id="sUXl09W4jl-q58QYEXRD-52" value="&lt;span style=&quot;font-size: 20px;&quot;&gt;V&lt;/span&gt;&lt;span style=&quot;font-size: 16.6667px;&quot;&gt;b&lt;/span&gt;" style="text;html=1;align=center;verticalAlign=middle;whiteSpace=wrap;rounded=0;" vertex="1" parent="1">
          <mxGeometry x="457.5" y="165" width="60" height="30" as="geometry" />
        </mxCell>
      </root>
    </mxGraphModel>
  </diagram>
</mxfile>
